<svg xmlns="http://www.w3.org/2000/svg" viewBox="0 0 64 64" role="img" aria-label="Sophia Lane">
  <rect width="64" height="64" rx="16" fill="#0c0c0e"/>
  <circle cx="32" cy="32" r="22" fill="#f1e4cf" opacity="0.92"/>
  <path d="M23 40c2.5 2 5.4 3 8.8 3 5.1 0 8.2-2.4 8.2-6.2 0-3.3-2.1-5.2-7.1-6.5-3.5-.9-4.7-1.7-4.7-3.3 0-1.7 1.6-2.7 4.2-2.7 2.3 0 4.4.7 6.4 2.1l1.8-4.5c-2.2-1.5-4.9-2.3-8.1-2.3-5.3 0-8.6 2.8-8.6 6.9 0 3.5 2.3 5.4 7.3 6.7 3.3.8 4.4 1.6 4.4 3.1 0 1.5-1.3 2.3-3.8 2.3-2.6 0-4.9-.8-7-2.5L23 40Z" fill="#0c0c0e"/>
</svg>
